<svg width="200" height="151" fill="none" xmlns="http://www.w3.org/2000/svg"><path d="M50.857 76.356a153.907 153.907 0 00-5.622 3.69l-4.12 2.997M169.944 132.628v3.241M169.944 141.526v3.241M175.999 138.697h-3.229M167.11 138.697h-3.23M35.736 60.076a2.24 2.24 0 002.24-2.242 2.24 2.24 0 10-2.24 2.242z" stroke="#00E6C5" stroke-width="2" stroke-linecap="round" stroke-linejoin="round"/><path d="M101.323 94.394c6.954 0 12.591-5.778 12.591-12.906 0-7.127-5.637-12.905-12.591-12.905-6.953 0-12.59 5.778-12.59 12.906 0 7.127 5.637 12.905 12.59 12.905z" fill="#D38603"/><mask id="a" maskUnits="userSpaceOnUse" x="88" y="68" width="26" height="27"><path d="M101.323 94.394c6.954 0 12.591-5.778 12.591-12.906 0-7.127-5.637-12.905-12.591-12.905-6.953 0-12.59 5.778-12.59 12.906 0 7.127 5.637 12.905 12.59 12.905z" fill="#FFAC20"/></mask><g mask="url(#a)"><path d="M96.115 93.092c6.954 0 12.591-5.778 12.591-12.906 0-7.127-5.637-12.905-12.59-12.905-6.954 0-12.591 5.778-12.591 12.905 0 7.128 5.637 12.906 12.59 12.906z" fill="#FFAC20"/></g><path fill-rule="evenodd" clip-rule="evenodd" d="M102.359 7.749a.77.77 0 00-.772.589l-1.633 6.66c-11.149.925-20.69 9.48-22.903 21.102l-4.212 22.106c-.784 4.116-3.145 7.764-6.547 10.116l-1.673 1.156c-2.217 1.533-3.373 4.25-2.948 6.93l.038.242c.433 2.732 2.624 4.772 5.314 4.948l61.887 4.044c2.689.176 5.187-1.558 6.059-4.205l.077-.235c.854-2.595.15-5.434-1.796-7.239l-1.468-1.362c-2.985-2.769-4.731-6.686-4.84-10.86l-.589-22.419c-.267-10.205-6.341-18.848-15.027-22.52l-.812-8.076a.719.719 0 00-.684-.652l-7.471-.325z" fill="#FFAC20"/><mask id="b" maskUnits="userSpaceOnUse" x="61" y="7" width="75" height="79"><path fill-rule="evenodd" clip-rule="evenodd" d="M102.359 7.749a.77.77 0 00-.772.589l-1.633 6.66c-11.149.925-20.69 9.48-22.903 21.102l-4.212 22.106c-.784 4.116-3.145 7.764-6.547 10.116l-1.673 1.156c-2.217 1.533-3.373 4.25-2.948 6.93l.038.242c.433 2.732 2.624 4.772 5.314 4.948l61.887 4.044c2.689.176 5.187-1.558 6.059-4.205l.077-.235c.854-2.595.15-5.434-1.796-7.239l-1.468-1.362c-2.985-2.769-4.731-6.686-4.84-10.86l-.589-22.419c-.267-10.205-6.341-18.848-15.027-22.52l-.812-8.076a.719.719 0 00-.684-.652l-7.471-.325z" fill="#FFDA00"/></mask><g mask="url(#b)"><path fill-rule="evenodd" clip-rule="evenodd" d="M100.848 8.155a.768.768 0 00-.801.548l-1.433 4.765c-12.198-.267-23.288 8.307-26.332 20.751l-5.575 22.796c-1.038 4.244-3.694 7.917-7.363 10.183l-1.805 1.114c-2.392 1.477-3.742 4.245-3.444 7.058l.027.254c.305 2.87 2.477 5.112 5.269 5.44l64.235 7.542c2.792.328 5.487-1.343 6.537-4.053l.093-.24c1.029-2.658.448-5.652-1.481-7.637l-1.456-1.497c-2.96-3.044-4.567-7.218-4.457-11.57l.594-23.381c.268-10.546-5.483-19.801-14.196-24.144l-.318-6.532a.719.719 0 00-.649-.687l-7.445-.71z" fill="#FFDA00"/></g><path d="M112.922 26.224c0-6.228 5.048-11.276 11.276-11.276 6.227 0 11.276 5.048 11.276 11.276 0 6.227-5.049 11.276-11.276 11.276-6.228 0-11.276-5.049-11.276-11.276z" fill="red"/><path d="M128.294 27.72c0 .523-.102.997-.304 1.424-.203.427-.491.79-.864 1.088a3.83 3.83 0 01-1.328.688c-.523.16-1.104.24-1.744.24-.779 0-1.44-.09-1.984-.272-.534-.192-.971-.41-1.312-.656v-1.936c.17.128.357.256.56.384.213.128.442.245.688.352.245.096.517.181.816.256.309.064.645.096 1.008.096.736 0 1.28-.155 1.632-.464.352-.32.528-.752.528-1.296 0-1.099-.71-1.648-2.128-1.648h-1.36v-1.824h1.44c.512 0 .922-.128 1.232-.384.32-.267.48-.65.48-1.152 0-.459-.155-.816-.464-1.072-.31-.256-.763-.384-1.36-.384-.608 0-1.136.112-1.584.336a6.771 6.771 0 00-1.232.752v-1.936a4.55 4.55 0 011.264-.656c.49-.181 1.13-.272 1.92-.272.565 0 1.077.075 1.536.224.458.15.848.357 1.168.624.32.267.565.592.736.976.17.373.256.784.256 1.232 0 .352-.064.672-.192.96a2.62 2.62 0 01-.48.768c-.192.213-.422.39-.688.528a3.086 3.086 0 01-.8.272c.341.053.666.155.976.304.309.139.581.325.816.56.234.235.421.512.56.832.138.31.208.661.208 1.056z" fill="#fff"/><path fill-rule="evenodd" clip-rule="evenodd" d="M124.198 41.422c-8.394 0-15.198-6.805-15.198-15.198 0-8.394 6.804-15.198 15.198-15.198 8.393 0 15.198 6.804 15.198 15.198 0 8.393-6.805 15.198-15.198 15.198zm0-26.474c-6.228 0-11.276 5.048-11.276 11.276 0 6.227 5.048 11.276 11.276 11.276 6.227 0 11.276-5.049 11.276-11.276 0-6.228-5.049-11.276-11.276-11.276z" fill="#fff"/><path d="M18.88 39.725v3.233M18.88 48.623v3.233M24.943 45.794h-3.237M16.046 45.794h-3.23M92.522 118.777c4.347-.994 8.641-2.207 12.866-3.633 29.783-10.035 50.517-28.312 46.313-40.832-1.524-4.453-5.949-7.572-12.401-9.303M50.438 92.985c-5.782 6.215-8.189 12.383-6.604 17.66 1.523 5.025 6.49 7.625 10.138 8.746M184.706 96.851c7.137-9.607 9.956-19.207 7.145-27.556-1.722-5.132-5.416-9.349-10.664-12.612" stroke="#00E6C5" stroke-width="2" stroke-linecap="round" stroke-linejoin="round"/><path d="M20.555 103.729c-5.827 8.776-7.96 17.446-5.393 25.079 7.618 22.562 53.32 27.518 102.071 11.086a185.28 185.28 0 0039.099-18.254" stroke="#00E6C5" stroke-width="2" stroke-linecap="round" stroke-linejoin="round"/><g clip-path="url(#clip0)"><path d="M165.52 45.64l6.544-10.48c4.752-7.656 15.672-3.952 10.64 4.688l-5.232 8.992c-2.272 3.752-7.52 3.64-10.08-.12l-1.984-2.912.104-.176.008.008z" fill="#EBFF00"/><path d="M165.52 45.64l6.544-10.48c4.752-7.656 15.672-3.952 10.64 4.688l-5.232 8.992c-2.272 3.752-7.52 3.64-10.08-.12l-1.984-2.912.104-.176.008.008z" fill="url(#paint0_linear)"/><path d="M177.12 49.448l.032-.064.12-.2-.16.264h.008z" fill="#EBFF00"/><path d="M177.12 49.448l.032-.064.12-.2-.16.264h.008z" fill="url(#paint1_linear)"/><path d="M167.392 48.72l-3.864-5.68c-5.448-7.992-14.976-1.152-10.264 6.016 1.576 2.392 2.208 3.304 3.784 5.696 4.328 6.504 13.2 6.456 16.96 0l3.52-6.032c-2.24 3.872-7.552 3.8-10.144 0h.008z" fill="#02BE9C"/><path d="M167.392 48.72l-3.864-5.68c-5.448-7.992-14.976-1.152-10.264 6.016 1.576 2.392 2.208 3.304 3.784 5.696 4.328 6.504 13.2 6.456 16.96 0l3.52-6.032c-2.24 3.872-7.552 3.8-10.144 0h.008z" fill="url(#paint2_linear)"/></g><path d="M179.051 112.801c-1.347 5.293-7.418 9.048-10.887 9.731-1.914.377-2.259-.868-2.099-2.065.108-.862.351-2.627.571-4.277 0 0 10.614-3.63 12.415-3.389z" fill="#C4C4C4"/><path d="M179.051 112.801c-1.347 5.293-7.418 9.048-10.887 9.731-1.914.377-2.259-.868-2.099-2.065.108-.862.351-2.627.571-4.277 0 0 10.614-3.63 12.415-3.389z" fill="url(#paint3_linear)"/><path d="M156.931 98.094c1.045-5.084 2.625-6.292 7.799-5.967 3.378.214 6.736.663 10.051 1.345 5.078 1.046 6.285 2.627 5.961 7.807a73.12 73.12 0 01-1.343 10.061c-1.046 5.084-2.625 6.292-7.8 5.967a72.696 72.696 0 01-10.051-1.345c-5.078-1.046-6.285-2.627-5.96-7.807a72.817 72.817 0 011.343-10.061z" fill="#F33"/><path fill-rule="evenodd" clip-rule="evenodd" d="M162.817 99.899c.117-.877.176-1.316.485-1.552.308-.236.746-.177 1.622-.06l2.788.373-.621 4.651-4.646-.622.372-2.79zm-.703 5.271l-.373 2.791c-.117.877-.175 1.315.06 1.624.236.309.674.368 1.55.485l2.788.373.621-4.651-4.646-.622zm6.503 5.604l1.573-11.783 2.788.373c.876.117 1.314.176 1.55.485s.177.747.06 1.624l-1.076 8.062c-.117.877-.176 1.316-.484 1.552-.309.236-.747.177-1.623.06l-2.788-.373z" fill="url(#paint4_linear)"/><path fill-rule="evenodd" clip-rule="evenodd" d="M162.817 99.899c.117-.877.176-1.316.485-1.552.308-.236.746-.177 1.622-.06l2.788.373-.621 4.651-4.646-.622.372-2.79zm-.703 5.271l-.373 2.791c-.117.877-.175 1.315.06 1.624.236.309.674.368 1.55.485l2.788.373.621-4.651-4.646-.622zm6.503 5.604l1.573-11.783 2.788.373c.876.117 1.314.176 1.55.485s.177.747.06 1.624l-1.076 8.062c-.117.877-.176 1.316-.484 1.552-.309.236-.747.177-1.623.06l-2.788-.373z" fill="url(#paint5_linear)"/><path fill-rule="evenodd" clip-rule="evenodd" d="M28.967 78.028h-8.054c-2.78 0-5.034 2.322-5.034 5.186v8.3c0 2.864 2.255 5.186 5.034 5.186h8.054c2.78 0 5.033-2.323 5.033-5.186v-8.3c0-2.864-2.254-5.186-5.033-5.186z" fill="#FC0"/><path fill-rule="evenodd" clip-rule="evenodd" d="M25.569 74.527h-8.054c-2.78 0-5.034 2.322-5.034 5.186v8.3c0 2.863 2.255 5.186 5.034 5.186h8.054c2.78 0 5.033-2.323 5.033-5.186v-8.3c0-2.864-2.254-5.186-5.033-5.186z" fill="#FF7B00"/><mask id="c" maskUnits="userSpaceOnUse" x="9" y="71" width="19" height="19"><path d="M9.083 71.026h18.121v18.672H9.084V71.026z" fill="#fff"/></mask><g mask="url(#c)"><path fill-rule="evenodd" clip-rule="evenodd" d="M22.171 71.026h-8.054c-2.779 0-5.034 2.322-5.034 5.186v8.3c0 2.864 2.255 5.186 5.034 5.186h8.054c2.78 0 5.034-2.322 5.034-5.186v-8.3c0-2.864-2.254-5.186-5.034-5.186z" fill="#4233FF"/></g><path d="M18.144 74.527v11.67M23.807 80.362H12.481" stroke="#fff" stroke-width="2"/><path d="M73 135.026c6.627 0 12-5.373 12-12 0-6.628-5.373-12-12-12s-12 5.372-12 12c0 6.627 5.373 12 12 12z" fill="#2C3036"/><path d="M73 135.026c6.627 0 12-5.373 12-12 0-6.628-5.373-12-12-12s-12 5.372-12 12c0 6.627 5.373 12 12 12z" fill="url(#paint6_linear)"/><path fill-rule="evenodd" clip-rule="evenodd" d="M85 123.158v-.264c-5.314-.161-7.744-.294-9.682-2.187-1.892-1.937-2.025-4.367-2.185-9.681h-.266c-.16 5.314-.293 7.744-2.186 9.681-1.938 1.893-4.367 2.026-9.681 2.187v.264c5.314.161 7.743.294 9.681 2.186 1.893 1.938 2.026 4.368 2.186 9.682h.266c.16-5.314.293-7.744 2.185-9.682 1.938-1.892 4.368-2.025 9.682-2.186z" fill="#fff"/><defs><linearGradient id="paint0_linear" x1="162.816" y1="63.984" x2="184.464" y2="27.704" gradientUnits="userSpaceOnUse"><stop stop-color="#28BD7C"/><stop offset="1" stop-color="#38CF90" stop-opacity="0"/></linearGradient><linearGradient id="paint1_linear" x1="162.816" y1="63.984" x2="184.464" y2="27.704" gradientUnits="userSpaceOnUse"><stop stop-color="#28BD7C"/><stop offset="1" stop-color="#38CF90" stop-opacity="0"/></linearGradient><linearGradient id="paint2_linear" x1="177.528" y1="78.76" x2="156.92" y2="44.624" gradientUnits="userSpaceOnUse"><stop stop-color="#414B80"/><stop offset="1" stop-color="#414B80" stop-opacity="0"/></linearGradient><linearGradient id="paint3_linear" x1="173.152" y1="112.169" x2="171.657" y2="123.345" gradientUnits="userSpaceOnUse"><stop offset=".104" stop-color="#D00811"/><stop offset=".87" stop-color="#F33"/></linearGradient><linearGradient id="paint4_linear" x1="168.951" y1="98.825" x2="167.375" y2="110.607" gradientUnits="userSpaceOnUse"><stop stop-color="#FFEF84"/><stop offset=".417" stop-color="#FFDE47"/><stop offset="1" stop-color="#FFCE22"/></linearGradient><linearGradient id="paint5_linear" x1="168.951" y1="98.825" x2="167.375" y2="110.607" gradientUnits="userSpaceOnUse"><stop stop-color="#FFEF84"/><stop offset=".417" stop-color="#FFDE47"/><stop offset="1" stop-color="#FFCE22"/></linearGradient><linearGradient id="paint6_linear" x1="85" y1="135.026" x2="85" y2="111.026" gradientUnits="userSpaceOnUse"><stop stop-color="#fff" stop-opacity=".01"/><stop offset=".475" stop-color="#fff" stop-opacity=".01"/><stop offset=".76" stop-color="#fff" stop-opacity=".043"/><stop offset=".995" stop-color="#fff" stop-opacity=".099"/><stop offset="1" stop-color="#fff" stop-opacity=".1"/></linearGradient><clipPath id="clip0"><path fill="#fff" transform="translate(152 29)" d="M0 0h32v32H0z"/></clipPath></defs></svg>