<svg width="24" height="24" fill="none" xmlns="http://www.w3.org/2000/svg"><path fill-rule="evenodd" clip-rule="evenodd" d="M8.473.5h7.054c6.44 0 7.973 1.533 7.973 7.973v7.054c0 6.44-1.533 7.973-7.973 7.973H8.473C2.033 23.5.5 21.967.5 15.527V8.473C.5 2.033 2.033.5 8.473.5z" fill="#5181B8"/><path fill-rule="evenodd" clip-rule="evenodd" d="M19.335 8.424c.107-.356 0-.617-.507-.617h-1.677c-.426 0-.623.226-.73.475 0 0-.852 2.079-2.06 3.429-.391.39-.57.515-.782.515-.107 0-.261-.124-.261-.48V8.424c0-.427-.124-.617-.48-.617h-2.635c-.266 0-.426.198-.426.386 0 .404.604.497.666 1.634v2.47c0 .542-.098.64-.311.64-.569 0-1.952-2.088-2.772-4.478-.16-.464-.322-.652-.75-.652H4.932c-.479 0-.575.226-.575.475 0 .444.569 2.647 2.648 5.56 1.386 1.99 3.338 3.07 5.115 3.07 1.066 0 1.198-.24 1.198-.653v-1.504c0-.479.1-.575.438-.575.25 0 .676.125 1.67 1.084 1.138 1.137 1.325 1.648 1.965 1.648h1.677c.479 0 .719-.24.58-.713-.15-.471-.694-1.155-1.414-1.965-.391-.462-.977-.96-1.155-1.208-.249-.32-.178-.462 0-.747 0 0 2.043-2.878 2.256-3.855z" fill="#fff"/></svg>